<svg width="908" height="819" viewBox="0 0 908 819" fill="none" xmlns="http://www.w3.org/2000/svg">
<g clip-path="url(#clip0)">
<rect width="908" height="819" fill="none"/>
<path fill-rule="evenodd" clip-rule="evenodd" d="M774.225 320.334C773.692 319.946 772.426 319.809 771.838 319.692C769.39 319.21 766.869 319 764.374 319C756.681 319.012 748.863 319.767 741.298 321.074C736.494 321.903 730.687 324.696 725.909 323.179C717.585 320.537 709.172 320.667 701.274 324.439C694.053 327.888 688.572 334.439 685.373 341.517C684.89 342.586 682.932 346.519 682.378 349.17C682.141 349.712 681.913 350.257 681.708 350.811C681.126 352.384 680.603 353.984 680.118 355.588C679.91 356.272 679.389 357.782 680.008 358.074C679.019 359.901 678.141 361.783 677.411 363.726C675.286 369.378 672.962 375.578 672.215 381.568C671.939 383.786 671.928 386.017 672.185 388.239C672.312 389.338 672.26 391.546 673.004 392.382C674.585 394.154 675.396 391.673 675.218 390.491C673.858 381.485 676.485 373.027 679.598 364.561C681.612 359.087 684.92 354.078 688.626 349.543C691.625 345.871 694.842 342.98 698.953 340.546C703.981 337.569 709.356 335.163 714.681 332.749C718.184 331.161 721.691 329.615 725.291 328.247C726.092 327.942 727.351 327.161 728.239 327.158C730.116 327.152 732.777 328.537 734.59 329.052C740.554 330.748 746.594 332.919 752.758 333.785C756.712 334.341 760.416 333.715 764.113 332.398C764.491 332.264 765.125 331.918 765.901 331.424C768.646 330.368 771.243 329.039 773.504 327.121C774.806 326.017 775.989 324.589 777.067 323.282C777.389 322.892 777.532 322.444 777.537 322.018C777.781 321.891 777.943 321.741 777.98 321.567C778.249 320.281 775.796 320.258 774.225 320.334Z" fill="#89C5CC"/>
<path fill-rule="evenodd" clip-rule="evenodd" d="M149.273 427.541C147.764 428.763 146.284 430.011 144.84 431.31C143.739 432.3 141.791 433.485 141.396 434.985C140.985 436.544 142.282 438.003 143.306 438.945C148.723 443.929 154.823 447.298 162.329 447.859C173.887 448.722 183.946 445.77 193.974 439.963C201.018 435.883 205.684 429.849 206.703 421.701C215.092 425.187 223.205 429.993 230.1 435.891C233.502 438.801 236.432 442.025 239.142 445.599C240.878 447.889 242.557 450.215 244.115 452.631C244.792 453.68 245.481 455.542 246.599 456.146C247.912 456.856 249.499 455.743 249.434 454.284C249.379 453.069 248.068 451.66 247.454 450.667C246.436 449.018 245.402 447.379 244.313 445.776C242.551 443.179 240.73 440.62 238.744 438.19C234.28 432.73 228.601 428.221 222.714 424.375C211.42 416.997 199.025 412.349 185.283 411.955C176.833 411.713 169.725 414.6 162.499 418.911C158 421.595 153.356 424.235 149.273 427.541Z" fill="#DDE3E9"/>
<path fill-rule="evenodd" clip-rule="evenodd" d="M258.883 391.856C250.077 382.787 241.241 373.832 231.403 365.847C225.605 361.141 219.495 356.863 213.511 352.401C214.201 353.006 214.878 353.628 215.539 354.266C213.671 352.998 211.226 352.281 209.246 351.107C207.037 349.798 204.925 348.301 202.854 346.791C198.811 343.845 194.829 340.843 190.673 338.051C186.043 334.94 181.245 332.066 176.536 329.072C172.539 326.532 168.494 323.751 164.218 321.674C161.888 320.542 159.553 319.201 157.213 318.02C156.43 317.625 148.484 312.608 148.504 312.593C148.943 312.262 152.942 314.14 153.56 314.393C155.366 315.131 157.094 316.013 158.83 316.893C157.877 315.013 157.123 313.038 156.712 310.958C156.585 310.317 155.569 305.644 156.089 305.252C156.348 305.057 158.883 313.416 159.013 314.22C159.119 314.872 159.103 315.812 159.317 316.431C159.662 317.429 159.645 317.127 160.405 317.69C161.798 318.721 163.647 319.365 165.154 320.227C165.968 320.68 168.485 322.48 170.001 322.993C174.588 325.221 179.238 328.649 183.597 331.495C182.453 329.345 181.582 327.097 180.948 324.741C180.797 324.182 179.167 319.165 179.563 318.867C180.008 318.532 183.112 326.195 183.296 326.92C183.637 328.268 183.708 329.768 184.136 331.079C184.605 332.518 186.07 333.028 187.39 333.867C192.247 336.953 196.938 340.232 201.55 343.662C206.583 334.711 200.78 323.903 195.89 316.393C192.364 310.98 187.619 306.34 182.608 302.289C175.92 296.882 168.269 292.563 160.627 288.612C151.723 284.009 142.099 281.156 132.093 279.839C126.86 279.149 121.507 279.169 116.221 279.39C113.639 279.498 111.16 279.84 108.686 280.682C107.57 281.062 106.492 281.541 105.442 282.077C104.644 282.484 102.713 282.914 102.255 283.521C98.4772 288.438 96.5448 293.337 96.8399 299.515C97.1189 305.363 98.9659 311.214 101.472 316.431C104.264 322.24 107.854 327.512 112.55 331.936C116.132 335.312 120.137 338.25 124.116 341.15C138.267 351.463 156.208 360.433 174.536 358.128C180.469 357.383 186.112 355.308 191.385 352.489C192.628 351.824 193.863 351.152 195.036 350.368C195.827 349.839 197.941 347.456 198.736 347.37C199.827 347.251 202.175 349.469 203.198 350.144C210.972 355.275 218.542 360.685 225.953 366.313C233.839 372.301 241.337 378.697 248.615 385.393C251.71 388.242 254.786 391.096 257.791 394.04C258.491 394.725 260.202 397.247 261.471 397.361C262.273 397.434 262.814 396.749 262.7 396.006C262.501 394.715 259.785 392.784 258.883 391.856Z" fill="#C1DEE2"/>
<path fill-rule="evenodd" clip-rule="evenodd" d="M764.98 356.66C761.57 355.915 757.803 355.972 754.329 356.033C735.695 356.287 717.397 365.109 705.489 379.205C695.351 391.205 692.563 406.125 690.56 421.207C690.362 422.704 690.277 424.192 690.165 425.693C690.141 426.015 690.105 426.302 690.066 426.573C689.279 427.277 688.865 428.098 689.332 429C687.597 432.797 686.129 436.69 684.869 440.706C681.162 452.526 677.392 464.571 679.714 477C680.257 470.16 681.399 463.166 682.764 456.438C682.842 456.052 682.927 455.669 683.015 455.287C683.025 455.247 683.033 455.206 683.042 455.166C683.525 453.106 684.153 451.108 684.917 449.141C684.925 449.119 684.933 449.098 684.941 449.077C685.042 448.818 685.149 448.56 685.255 448.303C685.474 447.77 685.699 447.238 685.937 446.709C686.018 446.528 686.095 446.346 686.17 446.163C687.282 443.437 687.751 440.365 688.748 437.545C688.986 436.904 689.235 436.265 689.496 435.629C689.512 435.592 689.527 435.555 689.543 435.518C690.249 433.807 691.028 432.118 691.853 430.446C692.301 430.109 692.54 429.274 692.927 428.515C693.006 428.365 693.631 427.368 693.817 426.793C694.303 425.854 694.786 424.915 695.275 423.977C695.261 423.983 695.246 423.988 695.231 423.994C695.72 423.093 696.211 422.197 696.698 421.304C696.805 421.108 696.913 420.912 697.021 420.715C697.196 420.402 697.371 420.089 697.545 419.777C699.177 416.856 700.908 413.994 702.705 411.167C703.347 410.158 704.879 408.711 705.173 407.579C705.184 407.536 705.186 407.497 705.193 407.457C709.093 401.979 713.582 396.927 718.967 392.924C718.316 393.628 716.932 396.015 716.567 396.488C715.447 397.935 714.232 399.282 713.013 400.646C710.828 403.089 708.696 405.609 706.801 408.274C703.335 413.148 700.346 418.277 697.519 423.51C697.493 423.54 697.463 423.569 697.438 423.601C696.017 425.352 695.123 427.998 694.101 430.001C698.147 428.127 702.622 426.906 706.774 425.242C710.916 423.583 714.944 421.735 718.834 419.566C724.003 416.682 729.366 413.427 734.25 409.743C739.847 406.271 744.551 401.492 748.703 396.477C753.615 390.543 758.117 384.558 760.901 377.353C762.269 373.813 763.345 370.121 763.983 366.386C764.011 366.224 764.046 366.047 764.085 365.864C764.738 364.574 765.321 363.255 765.811 361.906C766.588 359.766 768.425 357.412 764.98 356.66Z" fill="#69A1AC"/>
<path fill-rule="evenodd" clip-rule="evenodd" d="M116.292 368.014C114.94 366.666 113.422 365.45 111.64 364.583C111.189 364.364 107.833 362.895 107.614 363.218C107.105 363.968 115.886 367.583 116.292 368.014M132.205 359.012C132.194 359.069 133.358 360.887 133.675 361.446C134.349 362.635 134.972 363.847 135.558 365.061C134.691 362.916 133.8 360.928 132.205 359.012M50.8181 373.814C49.6972 374.146 48.3496 372.836 49.8035 372.514C50.9799 372.254 50.9222 372.193 51.4504 371.321C51.8794 370.612 52.1436 369.748 52.52 369.005C53.3184 367.427 54.224 365.923 55.3357 364.514C57.7182 361.493 60.621 358.89 63.8767 356.696C69.5586 352.868 75.9293 349.369 82.6872 347.611C93.4325 344.816 105.662 344.643 116.424 346.581C123.089 347.781 129.181 349.867 133.606 354.809C135.818 357.279 137.555 360.172 138.314 363.358C138.512 364.19 138.475 365.116 138.723 365.932C139.104 367.185 138.936 366.851 140.528 367.095C142.267 367.362 144.004 367.633 145.74 367.91C150.287 368.634 154.861 369.403 159.291 370.578C160.75 370.965 162.176 371.437 163.569 371.987C164.622 372.402 168.818 373.704 169.328 374.965C170.177 377.062 167.333 376.111 166.45 375.655C165.676 375.254 164.881 374.881 164.075 374.538C162.045 373.673 159.93 373.004 157.767 372.471C155.43 371.895 153.045 371.466 150.669 371.035C148.454 370.634 146.23 370.27 144.003 369.921C142.766 369.727 141.528 369.539 140.29 369.35C139.867 369.286 139.122 368.949 139.178 369.455C136.575 368.993 133.76 369.06 131.109 368.932C127.862 368.777 124.602 368.649 121.344 368.742C118.994 368.81 116.642 368.952 114.304 369.242C112.938 369.412 111.594 369.661 110.253 369.976C109.517 370.149 106.614 370.515 106.213 371.106C106.385 370.852 109.589 371.099 109.997 371.084C111.628 371.028 113.247 370.879 114.872 370.712C117.888 370.402 120.906 370.24 123.931 370.263C123.92 370.752 121.853 371.623 121.348 371.947C120.217 372.674 119.134 373.467 118.123 374.337C116.343 375.869 114.211 377.766 112.979 379.581C113.342 379.046 115.133 378.35 115.768 377.942C116.786 377.287 117.783 376.588 118.727 375.841C119.598 375.152 120.411 374.407 121.21 373.646C122.009 372.885 123.094 371.303 124.144 370.796C124.208 370.765 124.666 371.098 124.926 370.985C125.188 370.871 125.514 370.3 125.581 370.277C126.559 369.93 128.415 370.362 129.443 370.406C132.109 370.519 134.772 370.667 137.435 370.802C138.26 370.843 138.962 370.671 139.273 371.231C139.605 371.829 138.997 373.4 138.824 374.051C138.181 376.469 137.041 378.638 135.245 380.511C131.883 384.02 127.736 386.359 123.052 387.924C105.111 393.918 86.0234 396.318 68.0874 390.083C60.6619 387.502 49.4791 382.889 50.8181 373.814" fill="#89C5CC"/>
<g opacity="0.6" clip-path="url(#clip1)">
<path fill-rule="evenodd" clip-rule="evenodd" d="M871.965 656.189C884.165 732.272 588.277 781.899 333.6 747.266C78.9222 712.633 -37.9118 577.387 83.6161 505.322C205.144 433.258 859.764 580.106 871.965 656.189Z" fill="#DDE3E9"/>
</g>
<rect x="222" y="201" width="159" height="302" rx="8" fill="#F2F2F2"/>
<path fill-rule="evenodd" clip-rule="evenodd" d="M301 484C309.284 484 316 477.284 316 469C316 460.716 309.284 454 301 454C292.716 454 286 460.716 286 469C286 477.284 292.716 484 301 484Z" fill="white"/>
<path fill-rule="evenodd" clip-rule="evenodd" d="M288 221C289.105 221 290 220.105 290 219C290 217.895 289.105 217 288 217C286.895 217 286 217.895 286 219C286 220.105 286.895 221 288 221Z" fill="white"/>
<rect x="295" y="217" width="21" height="4" rx="2" fill="white"/>
<rect x="236" y="229" width="131" height="54" rx="4" fill="white"/>
<g clip-path="url(#clip2)">
<rect x="275" y="245.2" width="73" height="8.1" rx="3" fill="#DDE3E9"/>
<rect x="275" y="258.7" width="49" height="8.1" rx="3" fill="#DDE3E9"/>
</g>
<path fill-rule="evenodd" clip-rule="evenodd" d="M257 268C263.627 268 269 262.627 269 256C269 249.373 263.627 244 257 244C250.373 244 245 249.373 245 256C245 262.627 250.373 268 257 268Z" fill="#C5CFD6"/>
<rect x="236" y="291" width="131" height="42" rx="4" fill="white"/>
<g clip-path="url(#clip3)">
<rect x="275" y="303.6" width="73" height="6.3" rx="3" fill="#DDE3E9"/>
<rect x="275" y="314.1" width="49" height="6.3" rx="3" fill="#DDE3E9"/>
</g>
<path fill-rule="evenodd" clip-rule="evenodd" d="M257 324C263.627 324 269 318.627 269 312C269 305.373 263.627 300 257 300C250.373 300 245 305.373 245 312C245 318.627 250.373 324 257 324Z" fill="#C5CFD6"/>
<rect x="236" y="341" width="131" height="42" rx="4" fill="white"/>
<g clip-path="url(#clip4)">
<rect x="275" y="353.6" width="73" height="6.3" rx="3" fill="#DDE3E9"/>
<rect x="275" y="364.1" width="49" height="6.3" rx="3" fill="#DDE3E9"/>
</g>
<path fill-rule="evenodd" clip-rule="evenodd" d="M257 374C263.627 374 269 368.627 269 362C269 355.373 263.627 350 257 350C250.373 350 245 355.373 245 362C245 368.627 250.373 374 257 374Z" fill="#AFB9C5"/>
<rect x="236" y="391" width="131" height="42" rx="4" fill="white"/>
<g clip-path="url(#clip5)">
<rect x="275" y="403.6" width="73" height="6.3" rx="3" fill="#DDE3E9"/>
<rect x="275" y="414.1" width="49" height="6.3" rx="3" fill="#DDE3E9"/>
</g>
<path fill-rule="evenodd" clip-rule="evenodd" d="M257 424C263.627 424 269 418.627 269 412C269 405.373 263.627 400 257 400C250.373 400 245 405.373 245 412C245 418.627 250.373 424 257 424Z" fill="#C5CFD6"/>
<path fill-rule="evenodd" clip-rule="evenodd" d="M252.14 445C250.815 445 249.494 445.027 248.171 445.095C247.162 445.148 245.621 444.939 244.768 445.568C243.881 446.221 243.942 447.557 244.081 448.501C244.813 453.493 246.6 457.919 250.339 461.456C256.096 466.901 262.695 469.668 270.504 470.9C275.99 471.766 281.054 470.564 285.092 466.663C288.043 472.139 290.281 478.199 291.404 484.315C291.958 487.333 292.127 490.315 292.03 493.388C291.967 495.356 291.859 497.32 291.648 499.279C291.556 500.13 291.122 501.418 291.455 502.223C291.846 503.167 293.165 503.259 293.757 502.453C294.25 501.783 294.16 500.466 294.261 499.673C294.429 498.355 294.584 497.036 294.695 495.712C294.876 493.569 295.009 491.42 295 489.268C294.977 484.435 293.902 479.583 292.432 474.995C289.612 466.192 285.037 458.369 277.921 452.231C273.545 448.457 268.537 446.929 262.856 446.108C259.318 445.597 255.723 445 252.14 445Z" fill="#89C5CC"/>
<path fill-rule="evenodd" clip-rule="evenodd" d="M272.571 480C258.272 480 248.642 491.524 244.089 503.502C242.372 508.016 241.97 512.974 241.308 517.714C241.096 519.236 241.175 521.554 240.557 522.909C240.333 523.401 239.819 523.577 240.065 524.247C240.214 524.652 240.505 524.901 240.944 524.981C241.843 525.147 243.115 524.167 243.886 523.781C250.282 520.573 254.484 515.613 257.912 509.545C260.038 505.784 262.194 501.879 263.456 497.75C264.227 495.227 264.676 492.571 264.94 489.954C265.044 488.923 265.144 487.868 265.138 486.832C265.132 485.803 264.653 485.259 264.309 484.364C269.08 482.558 274.466 482.066 279.299 483.937C283.769 485.668 287.482 489.013 289.561 493.216C290.101 494.308 290.518 495.46 290.821 496.636C291.02 497.406 291.029 498.404 291.398 499.1C292.29 500.788 294.168 499.66 293.988 498.089C293.485 493.708 290.979 489.309 287.775 486.263C283.734 482.421 278.258 480 272.571 480Z" fill="#89C5CC"/>
<rect x="288" y="227" width="159" height="302" rx="8" fill="#DDE3E9"/>
<path fill-rule="evenodd" clip-rule="evenodd" d="M367 510C375.284 510 382 503.284 382 495C382 486.716 375.284 480 367 480C358.716 480 352 486.716 352 495C352 503.284 358.716 510 367 510Z" fill="white"/>
<path fill-rule="evenodd" clip-rule="evenodd" d="M354 247C355.105 247 356 246.105 356 245C356 243.895 355.105 243 354 243C352.895 243 352 243.895 352 245C352 246.105 352.895 247 354 247Z" fill="white"/>
<rect x="361" y="243" width="21" height="4" rx="2" fill="white"/>
<rect x="302" y="255" width="131" height="54" rx="4" fill="white"/>
<g clip-path="url(#clip6)">
<rect x="311" y="271.2" width="73" height="8.1" rx="3" fill="#DDE3E9"/>
<rect x="311" y="284.7" width="49" height="8.1" rx="3" fill="#DDE3E9"/>
</g>
<path fill-rule="evenodd" clip-rule="evenodd" d="M419 289C422.866 289 426 285.866 426 282C426 278.134 422.866 275 419 275C415.134 275 412 278.134 412 282C412 285.866 415.134 289 419 289Z" fill="#DDE3E9"/>
<path fill-rule="evenodd" clip-rule="evenodd" d="M419 285C420.657 285 422 283.657 422 282C422 280.343 420.657 279 419 279C417.343 279 416 280.343 416 282C416 283.657 417.343 285 419 285Z" fill="#F2F2F2"/>
<rect x="302" y="317" width="131" height="42" rx="4" fill="white"/>
<g clip-path="url(#clip7)">
<rect x="341" y="329.6" width="73" height="6.3" rx="3" fill="#DDE3E9"/>
<rect x="341" y="340.1" width="49" height="6.3" rx="3" fill="#DDE3E9"/>
</g>
<path fill-rule="evenodd" clip-rule="evenodd" d="M323 350C329.627 350 335 344.627 335 338C335 331.373 329.627 326 323 326C316.373 326 311 331.373 311 338C311 344.627 316.373 350 323 350Z" fill="#C5CFD6"/>
<rect x="302" y="367" width="131" height="42" rx="4" fill="white"/>
<g clip-path="url(#clip8)">
<rect x="311" y="379.6" width="73" height="6.3" rx="3" fill="#DDE3E9"/>
<rect x="311" y="390.1" width="49" height="6.3" rx="3" fill="#AFB9C5"/>
</g>
<path fill-rule="evenodd" clip-rule="evenodd" d="M419 395C422.866 395 426 391.866 426 388C426 384.134 422.866 381 419 381C415.134 381 412 384.134 412 388C412 391.866 415.134 395 419 395Z" fill="#DDE3E9"/>
<path fill-rule="evenodd" clip-rule="evenodd" d="M419 391C420.657 391 422 389.657 422 388C422 386.343 420.657 385 419 385C417.343 385 416 386.343 416 388C416 389.657 417.343 391 419 391Z" fill="#F2F2F2"/>
<rect x="302" y="417" width="131" height="42" rx="4" fill="white"/>
<g clip-path="url(#clip9)">
<rect x="341" y="429.6" width="73" height="6.3" rx="3" fill="#DDE3E9"/>
<rect x="341" y="440.1" width="49" height="6.3" rx="3" fill="#DDE3E9"/>
</g>
<path fill-rule="evenodd" clip-rule="evenodd" d="M323 450C329.627 450 335 444.627 335 438C335 431.373 329.627 426 323 426C316.373 426 311 431.373 311 438C311 444.627 316.373 450 323 450Z" fill="#C5CFD6"/>
<rect x="354" y="252" width="335" height="346" rx="8" fill="#F2F2F2"/>
<rect x="603" y="295" width="70" height="81" rx="8" fill="white"/>
<path fill-rule="evenodd" clip-rule="evenodd" d="M638 342C646.837 342 654 334.837 654 326C654 317.163 646.837 310 638 310C629.163 310 622 317.163 622 326C622 334.837 629.163 342 638 342Z" fill="#DDE3E9"/>
<rect x="613" y="346" width="50" height="6" rx="3" fill="#DDE3E9"/>
<rect x="621" y="356" width="34" height="6" rx="3" fill="#DDE3E9"/>
<path d="M354 260C354 255.582 357.582 252 362 252H681C685.418 252 689 255.582 689 260V279H354V260Z" fill="#C5CFD6"/>
<path fill-rule="evenodd" clip-rule="evenodd" d="M367 270C369.209 270 371 268.209 371 266C371 263.791 369.209 262 367 262C364.791 262 363 263.791 363 266C363 268.209 364.791 270 367 270Z" fill="#F2F2F2"/>
<path fill-rule="evenodd" clip-rule="evenodd" d="M379 270C381.209 270 383 268.209 383 266C383 263.791 381.209 262 379 262C376.791 262 375 263.791 375 266C375 268.209 376.791 270 379 270Z" fill="#F2F2F2"/>
<path fill-rule="evenodd" clip-rule="evenodd" d="M391 270C393.209 270 395 268.209 395 266C395 263.791 393.209 262 391 262C388.791 262 387 263.791 387 266C387 268.209 388.791 270 391 270Z" fill="#F2F2F2"/>
<rect x="603" y="384" width="70" height="194" rx="8" fill="white"/>
<rect x="621" y="402" width="34" height="26" rx="4" fill="#DDE3E9"/>
<rect x="621" y="436" width="34" height="25" rx="4" fill="#AFB9C5"/>
<rect x="621" y="469" width="34" height="25" rx="4" fill="#DDE3E9"/>
<rect x="621" y="535" width="34" height="25" rx="4" fill="#DDE3E9"/>
<rect x="621" y="502" width="34" height="25" rx="4" fill="#C5CFD6"/>
<rect x="370" y="296" width="225" height="47" rx="4" fill="white"/>
<g clip-path="url(#clip10)">
<rect x="379" y="310.1" width="167" height="7.05" rx="3" fill="#DDE3E9"/>
<rect x="379" y="321.85" width="112.096" height="7.05" rx="3" fill="#DDE3E9"/>
</g>
<path fill-rule="evenodd" clip-rule="evenodd" d="M570.954 326.5C574.82 326.5 577.954 323.366 577.954 319.5C577.954 315.634 574.82 312.5 570.954 312.5C567.088 312.5 563.954 315.634 563.954 319.5C563.954 323.366 567.088 326.5 570.954 326.5Z" fill="#DDE3E9"/>
<path fill-rule="evenodd" clip-rule="evenodd" d="M570.954 322.5C572.611 322.5 573.954 321.157 573.954 319.5C573.954 317.843 572.611 316.5 570.954 316.5C569.297 316.5 567.954 317.843 567.954 319.5C567.954 321.157 569.297 322.5 570.954 322.5Z" fill="#F2F2F2"/>
<rect x="370" y="351" width="225" height="39" rx="4" fill="white"/>
<g clip-path="url(#clip11)">
<rect x="379" y="362.7" width="167" height="5.85" rx="2.925" fill="#DDE3E9"/>
<rect x="379" y="372.45" width="112.096" height="5.85" rx="2.925" fill="#DDE3E9"/>
</g>
<path fill-rule="evenodd" clip-rule="evenodd" d="M570.954 377.5C574.82 377.5 577.954 374.366 577.954 370.5C577.954 366.634 574.82 363.5 570.954 363.5C567.088 363.5 563.954 366.634 563.954 370.5C563.954 374.366 567.088 377.5 570.954 377.5Z" fill="#DDE3E9"/>
<path fill-rule="evenodd" clip-rule="evenodd" d="M570.954 373.5C572.611 373.5 573.954 372.157 573.954 370.5C573.954 368.843 572.611 367.5 570.954 367.5C569.297 367.5 567.954 368.843 567.954 370.5C567.954 372.157 569.297 373.5 570.954 373.5Z" fill="#F2F2F2"/>
<rect x="370" y="398" width="225" height="39" rx="4" fill="white"/>
<g clip-path="url(#clip12)">
<rect x="379" y="409.7" width="167" height="5.85" rx="2.925" fill="#DDE3E9"/>
<rect x="379" y="419.45" width="112.096" height="5.85" rx="2.925" fill="#DDE3E9"/>
</g>
<path fill-rule="evenodd" clip-rule="evenodd" d="M570.954 424.5C574.82 424.5 577.954 421.366 577.954 417.5C577.954 413.634 574.82 410.5 570.954 410.5C567.088 410.5 563.954 413.634 563.954 417.5C563.954 421.366 567.088 424.5 570.954 424.5Z" fill="#DDE3E9"/>
<path fill-rule="evenodd" clip-rule="evenodd" d="M570.954 420.5C572.611 420.5 573.954 419.157 573.954 417.5C573.954 415.843 572.611 414.5 570.954 414.5C569.297 414.5 567.954 415.843 567.954 417.5C567.954 419.157 569.297 420.5 570.954 420.5Z" fill="#AFB9C5"/>
<rect x="370" y="539" width="225" height="39" rx="4" fill="white"/>
<g clip-path="url(#clip13)">
<rect x="379" y="550.7" width="167" height="5.85" rx="2.925" fill="#DDE3E9"/>
<rect x="379" y="560.45" width="112.096" height="5.85" rx="2.925" fill="#DDE3E9"/>
</g>
<path fill-rule="evenodd" clip-rule="evenodd" d="M570.954 565.5C574.82 565.5 577.954 562.366 577.954 558.5C577.954 554.634 574.82 551.5 570.954 551.5C567.088 551.5 563.954 554.634 563.954 558.5C563.954 562.366 567.088 565.5 570.954 565.5Z" fill="#DDE3E9"/>
<path fill-rule="evenodd" clip-rule="evenodd" d="M570.954 561.5C572.611 561.5 573.954 560.157 573.954 558.5C573.954 556.843 572.611 555.5 570.954 555.5C569.297 555.5 567.954 556.843 567.954 558.5C567.954 560.157 569.297 561.5 570.954 561.5Z" fill="#F2F2F2"/>
<rect x="370" y="492" width="225" height="39" rx="4" fill="white"/>
<g clip-path="url(#clip14)">
<rect x="379" y="503.7" width="167" height="5.85" rx="2.925" fill="#DDE3E9"/>
<rect x="379" y="513.45" width="112.096" height="5.85" rx="2.925" fill="#DDE3E9"/>
</g>
<path fill-rule="evenodd" clip-rule="evenodd" d="M570.954 518.5C574.82 518.5 577.954 515.366 577.954 511.5C577.954 507.634 574.82 504.5 570.954 504.5C567.088 504.5 563.954 507.634 563.954 511.5C563.954 515.366 567.088 518.5 570.954 518.5Z" fill="#DDE3E9"/>
<path fill-rule="evenodd" clip-rule="evenodd" d="M570.954 514.5C572.611 514.5 573.954 513.157 573.954 511.5C573.954 509.843 572.611 508.5 570.954 508.5C569.297 508.5 567.954 509.843 567.954 511.5C567.954 513.157 569.297 514.5 570.954 514.5Z" fill="#F2F2F2"/>
<rect x="370" y="445" width="225" height="39" rx="4" fill="white"/>
<g clip-path="url(#clip15)">
<rect x="379" y="456.7" width="167" height="5.85" rx="2.925" fill="#DDE3E9"/>
<rect x="379" y="466.45" width="112.096" height="5.85" rx="2.925" fill="#DDE3E9"/>
</g>
<path fill-rule="evenodd" clip-rule="evenodd" d="M570.954 471.5C574.82 471.5 577.954 468.366 577.954 464.5C577.954 460.634 574.82 457.5 570.954 457.5C567.088 457.5 563.954 460.634 563.954 464.5C563.954 468.366 567.088 471.5 570.954 471.5Z" fill="#DDE3E9"/>
<path fill-rule="evenodd" clip-rule="evenodd" d="M570.954 467.5C572.611 467.5 573.954 466.157 573.954 464.5C573.954 462.843 572.611 461.5 570.954 461.5C569.297 461.5 567.954 462.843 567.954 464.5C567.954 466.157 569.297 467.5 570.954 467.5Z" fill="#F2F2F2"/>
<path fill-rule="evenodd" clip-rule="evenodd" d="M771.986 422.376C768.041 419.701 762.796 419 758.076 419C739.64 419 722.311 425.84 707.341 436.032C699.138 441.616 691.8 448.728 685.322 456.132C681.582 460.407 678.248 465.03 675.887 470.173C674.294 473.644 673.201 477.261 672.46 480.991C671.557 485.537 670.839 490.175 670.515 494.797C670.387 496.617 669.33 506.274 672.356 506.438C672.338 506.676 672.334 506.903 672.353 507.106C665.782 517.38 661.723 529.42 657.958 540.835C654.683 550.769 651.764 560.786 649.87 571.063C647.375 584.592 645.737 598.326 644.958 612.05C644.791 614.999 644.676 617.95 644.577 620.903C644.493 623.422 644.408 625.941 644.325 628.461C644.233 631.284 643.736 634.534 644.185 637.34C644.576 639.784 646.691 639.414 646.785 636.982C646.898 634.045 646.879 631.102 647.008 628.163C647.179 624.262 647.355 620.361 647.546 616.461C648.875 589.369 653.86 562.675 663.061 537.084C666.785 526.728 671.051 516.925 676.535 507.345C681.356 498.922 687.156 490.767 693.084 483.173C698.845 475.792 704.836 468.583 711.895 462.33C717.624 457.256 723.926 452.835 730.404 448.722C738.631 443.498 746.843 438.401 755.755 434.391C760.388 432.307 765.108 430.441 769.777 428.44C770.617 428.081 771.517 427.732 772.325 427.315C775.02 425.925 774.133 423.832 771.986 422.376Z" fill="#C1DEE2"/>
<path fill-rule="evenodd" clip-rule="evenodd" d="M697.818 517C705.295 517 711.949 517.972 718.838 520.943C724.785 523.508 730.205 526.903 735.467 530.599C742.868 535.798 748.698 541.848 752.779 549.865C755.217 554.654 757.006 561.431 755.368 566.655C753.44 572.807 748.144 577.939 741.169 576.855C736.856 576.185 732.903 573.33 729.625 570.643C725.703 567.428 722.564 563.563 719.972 559.27C715.744 552.267 713.26 544.351 709.668 537.033C707.964 533.56 706.317 530.063 704.275 526.762C703.265 525.128 702.189 523.509 700.656 522.294C699.836 521.644 696.378 520.52 697.7 519.061C678.31 519.315 661.132 534.207 657.409 552.641C657.063 554.359 656.792 556.091 656.505 557.82C656.325 558.911 656.398 562.937 655.422 563.634C653.27 565.172 654.174 560.499 654.267 559.826C654.506 558.087 654.76 556.35 655.027 554.615C656.481 545.181 660.681 536.411 667.685 529.683C675.694 521.99 686.501 517 697.818 517Z" fill="#89C5CC"/>
<path fill-rule="evenodd" clip-rule="evenodd" d="M60.9379 549.736C79.6043 581.052 101.345 611.374 114.401 645.613C113.875 641.577 113.317 637.545 112.692 633.52C109.38 612.179 105.262 590.994 100.936 569.835C98.7326 559.062 96.4023 548.327 94.0123 537.594C92.7268 531.829 91.4572 526.061 90.1452 520.302C89.8275 518.906 89.5544 516.469 89.1566 514C101.845 555.637 114.081 597.305 123.031 639.942C124.205 645.538 125.205 651.124 126.024 656.7C126.304 655.428 126.58 654.156 126.881 652.887C130.503 637.68 135.935 622.594 142.403 608.374C145.495 601.575 149.046 594.924 153.228 588.726C155.836 584.863 161.986 580.271 164.364 576.314C151.355 600.176 146.657 630.032 139.145 655.973C137.312 662.304 135.467 668.624 133.659 674.955C144.987 652.237 162.563 633.571 187 625.483C157.42 645.027 139.678 679.254 127.722 714.26C127.683 714.675 127.636 715.09 127.595 715.506C131.114 708.829 135.545 702.789 141.551 698.56C154.407 689.504 168.667 692.142 181.137 699.91C171.35 693.689 153.663 699.354 145.428 705.677C139.533 710.203 134.495 716.275 130.12 722.2C129.072 723.62 127.641 725.277 126.13 727.044C124.012 740.795 120.56 754.452 115.672 768C116.479 764.111 115.896 757.892 116.12 754.993C116.144 754.68 116.164 754.365 116.188 754.053C115.445 757.019 114.727 759.951 114.036 762.837C115.41 757.331 116.156 751.583 116.739 745.776C116.889 743.281 117.036 740.785 117.19 738.29C117.141 733.553 116.946 728.799 116.616 724.036C115.447 719.408 114.137 715.042 113.056 711.411C109.159 698.31 103.444 685.76 96.4108 674.051C89.9937 663.366 82.3124 653.688 73.4448 644.935C68.6643 640.217 63.6614 635.725 58.7289 631.17C56.9453 629.523 53.7572 625.474 51 623.363C71.0805 634.434 91.7489 646.41 106.398 664.248C104.68 657.653 102.815 651.151 100.842 644.78C90.8311 612.454 78.1913 578.953 60.9379 549.736Z" fill="#DDE3E9"/>
<path fill-rule="evenodd" clip-rule="evenodd" d="M81 727C81 762.899 83.8428 792 122 792C160.157 792 163 762.899 163 727" fill="#C5CFD6"/>
<rect x="604" y="209" width="6" height="25" rx="3" fill="#DDE3E9"/>
<rect x="618" y="193" width="6" height="41" rx="3" fill="#DDE3E9"/>
<rect x="632" y="185" width="6" height="49" rx="3" fill="#DDE3E9"/>
<rect x="646" y="193" width="6" height="41" rx="3" fill="#DDE3E9"/>
<rect x="660" y="177" width="6" height="57" rx="3" fill="#C5CFD6"/>
<path fill-rule="evenodd" clip-rule="evenodd" d="M112 483.256C112 472.117 121.002 463 132 463V483.256L118.332 498C114.444 494.395 112 489.107 112 483.256Z" fill="#F2F2F2"/>
<path fill-rule="evenodd" clip-rule="evenodd" d="M131.471 483H151.668C151.668 488.221 149.538 493.113 146.171 496.668C142.468 500.556 137.195 503 131.471 503C126.198 503 121.372 500.891 117.668 497.557L131.471 483Z" fill="#AFB9C5"/>
<path fill-rule="evenodd" clip-rule="evenodd" d="M152 483C152 472.002 142.998 463 132 463V483H152ZM122 463L130 481L112 473C113.78 468.334 117.777 464.78 122 463Z" fill="#C5CFD6"/>
<path fill-rule="evenodd" clip-rule="evenodd" d="M762.766 492.179C760.845 494.219 758.123 495.5 755.095 495.5C749.278 495.5 744.562 490.799 744.562 485C744.562 479.201 749.278 474.5 755.095 474.5V455C738.546 455 725 468.503 725 485C725 501.497 738.546 515 755.095 515C763.788 515 771.645 511.334 777 505.502L762.766 492.179Z" fill="#F2F2F2"/>
<path fill-rule="evenodd" clip-rule="evenodd" d="M755 455V474.5C760.799 474.5 765.5 479.201 765.5 485H785C785 468.503 771.497 455 755 455Z" fill="#AFB9C5"/>
<path fill-rule="evenodd" clip-rule="evenodd" d="M765.097 485C765.097 488.407 763.492 491.435 761 493.391L773.262 509C780.399 503.412 785 494.749 785 485H765.097Z" fill="#C5CFD6"/>
<path fill-rule="evenodd" clip-rule="evenodd" d="M572.051 216.504C570.573 218.068 568.479 219.05 566.15 219.05C561.675 219.05 558.048 215.446 558.048 211C558.048 206.554 561.675 202.95 566.15 202.95V188C553.42 188 543 198.352 543 211C543 223.648 553.42 234 566.15 234C572.837 234 578.88 231.189 583 226.718L572.051 216.504Z" fill="#F2F2F2"/>
<path fill-rule="evenodd" clip-rule="evenodd" d="M566 188V202.95C570.446 202.95 574.05 206.554 574.05 211H589C589 198.352 578.648 188 566 188Z" fill="#AFB9C5"/>
<path fill-rule="evenodd" clip-rule="evenodd" d="M574.073 211C574.073 213.555 572.869 215.827 571 217.293L580.196 229C585.55 224.809 589 218.312 589 211H574.073Z" fill="#C5CFD6"/>
<path fill-rule="evenodd" clip-rule="evenodd" d="M208.007 233.986C208.003 233.996 207.999 234.006 207.993 234.018C207.999 234.008 208.007 233.968 208.007 233.986Z" fill="#C5CFD6"/>
<path fill-rule="evenodd" clip-rule="evenodd" d="M207.998 234.001C207.998 234.003 207.996 234.007 207.996 234.011C207.996 234.001 208.014 233.971 207.998 234.001Z" fill="#C5CFD6"/>
<path fill-rule="evenodd" clip-rule="evenodd" d="M208.067 233.832C208.053 233.872 208.035 233.91 208.019 233.95C208.027 233.93 208.035 233.914 208.043 233.894C207.835 234.414 207.967 234.076 208.067 233.832Z" fill="#C5CFD6"/>
<path fill-rule="evenodd" clip-rule="evenodd" d="M208.022 233.953C208.014 233.971 208.006 233.991 207.998 234.009C207.94 234.121 208.022 233.953 208.022 233.953Z" fill="#C5CFD6"/>
<path fill-rule="evenodd" clip-rule="evenodd" d="M207.999 234.002C207.999 234 207.999 234 208.001 233.998C207.999 234 207.999 234 207.999 234.002Z" fill="#C5CFD6"/>
<path fill-rule="evenodd" clip-rule="evenodd" d="M207.99 234.016C207.978 234.04 208.046 233.924 207.99 234.016V234.016Z" fill="#C5CFD6"/>
<path fill-rule="evenodd" clip-rule="evenodd" d="M207.998 234.002L208.002 233.998C208 234 208 234.002 207.998 234.002Z" fill="#C5CFD6"/>
<rect x="160" y="182" width="95" height="63" rx="4" fill="#DDE3E9"/>
<path fill-rule="evenodd" clip-rule="evenodd" d="M196 200L168 245H224L196 200Z" fill="#AFB9C5"/>
<path fill-rule="evenodd" clip-rule="evenodd" d="M223.5 212L199 245H248L223.5 212Z" fill="#C5CFD6"/>
<path fill-rule="evenodd" clip-rule="evenodd" d="M234 212C238.971 212 243 207.971 243 203C243 198.029 238.971 194 234 194C229.029 194 225 198.029 225 203C225 207.971 229.029 212 234 212Z" fill="white"/>
<path fill-rule="evenodd" clip-rule="evenodd" d="M684.993 660.986C684.997 660.996 685.001 661.006 685.007 661.018C685.001 661.008 684.993 660.968 684.993 660.986Z" fill="#C5CFD6"/>
<path fill-rule="evenodd" clip-rule="evenodd" d="M685.002 661.001C685.002 661.003 685.004 661.007 685.004 661.011C685.004 661.001 684.986 660.971 685.002 661.001Z" fill="#C5CFD6"/>
<path fill-rule="evenodd" clip-rule="evenodd" d="M684.933 660.832C684.947 660.872 684.965 660.91 684.981 660.95C684.973 660.93 684.965 660.914 684.957 660.894C685.165 661.414 685.033 661.076 684.933 660.832Z" fill="#C5CFD6"/>
<path fill-rule="evenodd" clip-rule="evenodd" d="M684.978 660.953C684.986 660.971 684.994 660.991 685.002 661.009C685.06 661.121 684.978 660.953 684.978 660.953Z" fill="#C5CFD6"/>
<path fill-rule="evenodd" clip-rule="evenodd" d="M685.001 661.002C685.001 661 685.001 661 684.999 660.998C685.001 661 685.001 661 685.001 661.002Z" fill="#C5CFD6"/>
<path fill-rule="evenodd" clip-rule="evenodd" d="M685.01 661.016C685.022 661.04 684.954 660.924 685.01 661.016V661.016Z" fill="#C5CFD6"/>
<path fill-rule="evenodd" clip-rule="evenodd" d="M685.002 661.002L684.998 660.998C685 661 685 661.002 685.002 661.002Z" fill="#C5CFD6"/>
<rect width="142" height="94" rx="4" transform="matrix(-1 0 0 1 756 584)" fill="#DDE3E9"/>
<path fill-rule="evenodd" clip-rule="evenodd" d="M703.274 611L744.329 678H662.219L703.274 611Z" fill="#AFB9C5"/>
<path fill-rule="evenodd" clip-rule="evenodd" d="M660.944 628.946L697.239 678H624.649L660.944 628.946Z" fill="#C5CFD6"/>
<path fill-rule="evenodd" clip-rule="evenodd" d="M645.5 629C638.044 629 632 622.956 632 615.5C632 608.044 638.044 602 645.5 602C652.956 602 659 608.044 659 615.5C659 622.956 652.956 629 645.5 629Z" fill="white"/>
<path fill-rule="evenodd" clip-rule="evenodd" d="M731.065 458.244C724.589 462.147 718.226 464.033 715.24 463.263C707.75 461.333 707.062 433.935 712.857 423.134C718.651 412.333 748.442 407.625 749.943 429.025C750.464 436.453 747.346 443.081 742.738 448.49L751 487H727L731.065 458.244Z" fill="#B28B67"/>
<path fill-rule="evenodd" clip-rule="evenodd" d="M742 424C728.151 424.099 718.515 423.516 713 422C713.251 417.306 718.131 412 731 412C745.318 412 753 420.346 753 430C753 438.821 747.322 449.563 743 450C741.88 449.755 740.924 448.406 739.973 446.547C741.753 445.681 743 443.64 743 441C743 438.462 740.761 436 738 436C736.993 436 736.055 436.328 735.27 436.867C733.456 433.945 731.182 431.762 728 432L730 426L742 425V424Z" fill="#191847"/>
<path fill-rule="evenodd" clip-rule="evenodd" d="M761 744C718.474 744 684 711.093 684 670.5C684 629.907 718.474 597 761 597C803.526 597 838 629.907 838 670.5C838 711.093 803.526 744 761 744Z" fill="#C5CFD6"/>
<path fill-rule="evenodd" clip-rule="evenodd" d="M641.289 666.58C637.57 679.608 628.303 704.302 615.491 732.66L603.315 729.107C613.967 663.853 622.832 620.651 627.91 607.502C631.265 598.814 656.647 599.832 653.727 617.313C652.502 624.643 647.657 644.273 641.289 666.58ZM691.333 620.361C711.188 624.475 752.356 639.017 764.112 643.664C771.5 646.584 766.737 656.488 760.434 655.622C759.367 655.475 755.59 655.052 749.956 654.422C731.858 652.397 694.588 648.228 666.321 644.16C651.437 642.017 659.444 614.138 674.898 617.088C680.097 618.081 685.627 619.179 691.333 620.361Z" fill="#B28B67"/>
<path fill-rule="evenodd" clip-rule="evenodd" d="M627.131 600.138C629.161 593.514 721.438 570 721.438 570H729V577.047L665.413 609.416C665.497 610.461 665.446 611.565 665.241 612.729C665.7 636.726 655.429 654.653 645.261 672.402C638.611 684.008 632.006 695.539 628.472 708.641L605.111 705.156C605.791 703.416 606.867 695.568 608.339 684.839C612.048 657.785 618.271 612.409 627 600.403C627.03 600.361 627.061 600.32 627.093 600.278C627.104 600.231 627.117 600.185 627.131 600.138Z" fill="#1F28CF"/>
<path fill-rule="evenodd" clip-rule="evenodd" d="M723.717 628.64C729.535 627.476 734.893 626.436 739.477 625.632C769.091 620.438 777.726 604.586 772.62 570H718.058C709.145 572.56 662.826 591.985 638.793 602.316C622.887 609.154 627.901 633.804 636.909 640.219C636.958 640.613 637.12 640.88 637.409 641C671.56 655.154 700.682 654.098 719.383 653.42C727.216 653.136 733.22 652.918 737 653.912L742.923 635.228L723.717 628.64Z" fill="#2B44FF"/>
<path fill-rule="evenodd" clip-rule="evenodd" d="M757.873 642.695C757.919 641.525 758.906 640.589 760.07 640.713C762.194 640.939 765.328 641.38 766.853 642.124C769.284 643.31 773.553 646.395 773.553 646.395C772.178 649.215 748.829 697.088 748.829 697.088C748.829 697.088 741.332 695.878 742.888 691.367C744.443 686.855 745.397 683.835 745.397 683.835L746.385 655.15C746.404 654.587 746.885 654.151 747.447 654.186L751.86 654.463C751.86 654.463 755.621 651.419 756.822 648.955C757.554 647.455 757.796 644.655 757.873 642.695Z" fill="#E4E4E4"/>
<path fill-rule="evenodd" clip-rule="evenodd" d="M618.55 726.284C619.622 725.813 620.896 726.29 621.295 727.391C622.023 729.398 623 732.409 623 734.106C623 736.811 622.099 742 622.099 742C618.961 742 565.697 742 565.697 742C565.697 742 563.498 734.732 568.235 734.152C572.972 733.573 576.105 733.106 576.105 733.106L602.32 721.419C602.835 721.189 603.437 721.43 603.652 721.951L605.337 726.039C605.337 726.039 609.722 728.085 612.463 728.085C614.132 728.085 616.754 727.074 618.55 726.284Z" fill="#E4E4E4"/>
<path fill-rule="evenodd" clip-rule="evenodd" d="M840.973 603.201C837.055 597.855 813.461 540.375 813.461 540.375L795.85 543.564C795.85 543.564 826.51 604.405 828.693 607.902C831.529 612.445 829.429 620.142 828.006 625.361C827.786 626.169 827.582 626.917 827.414 627.585C830.817 628.44 832.032 626.467 833.312 624.387C834.758 622.037 836.288 619.551 841.15 620.85C843.029 621.351 844.84 622.017 846.61 622.667C852.723 624.912 858.338 626.974 864.513 621.477C865.492 620.606 866.246 617.841 862.986 616.36C854.864 612.669 842.889 605.815 840.973 603.201ZM637.212 573.555L669.11 550.131L676.162 567.562L644.574 580.661C635.641 591.155 630.645 595.53 629.588 593.785C628.696 592.314 629.393 590.937 630.035 589.669C630.535 588.68 631.002 587.758 630.658 586.909C629.874 584.969 623.873 585.174 618.186 585.611C612.5 586.048 614.157 583.518 615.528 582.269C621.333 578.794 628.561 575.89 637.212 573.555Z" fill="#B28B67"/>
<path fill-rule="evenodd" clip-rule="evenodd" d="M726.736 467.041L737.431 471.428C737.319 474.221 737.33 478.195 737.342 482.747C737.382 497.036 737.438 517.027 733.746 524.122C720.957 548.701 694.697 561.505 665.449 575.765C661.529 577.676 657.555 579.614 653.552 581.61L645.505 565.182C646.437 564.521 647.361 563.857 648.277 563.188C647.013 562.745 645.958 561.745 645.497 560.377C644.704 558.022 645.97 555.469 648.325 554.676C653.111 553.063 657.576 552.383 661.68 552.678C691.651 527.423 711.827 497.858 726.736 467.041Z" fill="#69A1AC"/>
<path fill-rule="evenodd" clip-rule="evenodd" d="M775 578.91C775 578.91 727.843 584.09 700.764 578.91C698.527 578.482 698.625 568.84 699.663 566.207C715.815 525.202 726.44 495.184 726.44 466.703C730.885 469.025 742 467.399 742 467.399C761.914 496.75 771.067 530.427 775 578.91Z" fill="#191847"/>
<path fill-rule="evenodd" clip-rule="evenodd" d="M834.808 579.406C807.019 499.98 750.024 465 750.024 465H748.468H744.623H738.652C739.94 482.036 733.887 506.826 726.866 535.584C715.636 581.577 701.929 637.719 711.809 688.518C723.958 691.231 738.234 689.379 753.688 687.374C775.992 684.479 800.751 681.267 825.117 691C824.178 670.65 812.296 648.124 800.469 625.699C792.971 611.484 785.495 597.31 780.841 583.758C781.909 582.753 782.466 581.247 782.192 579.696L781.671 576.741C781.318 574.739 779.692 573.281 777.772 573.053C777.437 571.553 777.147 570.063 776.908 568.583C775.687 561.025 776.467 553.555 777.238 546.169L777.238 546.169C777.661 542.114 778.081 538.084 778.167 534.079C791.56 546.01 807.772 566.813 821.452 602.871L840.339 597.313C839.617 594.63 838.86 591.991 838.071 589.396C840.257 588.191 842.835 582.47 840.993 581.516C839.048 580.508 836.984 579.807 834.808 579.406Z" fill="#89C5CC"/>
<path fill-rule="evenodd" clip-rule="evenodd" d="M745.894 466L751.053 481.865L740.664 493.759L750.053 503.106L727.338 542L755.116 503.183L745.894 493.759L755.116 483.248L745.894 466Z" fill="black" fill-opacity="0.1"/>
<path fill-rule="evenodd" clip-rule="evenodd" d="M734 557C731.791 557 730 555.209 730 553C730 550.791 731.791 549 734 549C736.209 549 738 550.791 738 553C738 555.209 736.209 557 734 557ZM729 580C726.791 580 725 578.209 725 576C725 573.791 726.791 572 729 572C731.209 572 733 573.791 733 576C733 578.209 731.209 580 729 580ZM724 599C724 601.209 725.791 603 728 603C730.209 603 732 601.209 732 599C732 596.791 730.209 595 728 595C725.791 595 724 596.791 724 599Z" fill="black" fill-opacity="0.4"/>
<path fill-rule="evenodd" clip-rule="evenodd" d="M334 413.707C345.429 413.707 349.585 400.024 356.079 392.515C360.724 387.143 368.653 388.745 371 381.224C376.902 362.311 361.106 349 340.5 349C319.894 349 306 360.674 303 378.224C300 395.773 313.394 413.707 334 413.707Z" fill="#191847"/>
<path fill-rule="evenodd" clip-rule="evenodd" d="M346.935 411.244C353.411 415.147 359.774 417.033 362.76 416.263C370.25 414.333 370.938 386.935 365.143 376.134C359.349 365.333 329.558 360.625 328.057 382.025C327.536 389.453 330.654 396.081 335.262 401.49L327 440H351L346.935 411.244Z" fill="#B28B67"/>
<path fill-rule="evenodd" clip-rule="evenodd" d="M329.617 367C311.234 385 329.687 404.132 334.743 404.132C335.07 401.535 336.065 399.008 337.524 396.604C336.749 395.6 336.29 394.352 336.29 393C336.29 389.686 339.047 387 342.447 387C343.509 387 344.508 387.262 345.38 387.723C352.75 381.438 361.993 377.056 366.583 376.195C374.566 374.696 348 349 329.617 367Z" fill="#191847"/>
<path fill-rule="evenodd" clip-rule="evenodd" d="M319 523L356.631 646.024L374.86 750.648H389.153L369.891 523H319Z" fill="#997659"/>
<path fill-rule="evenodd" clip-rule="evenodd" d="M305.538 523C308.094 590.547 305.086 625.389 304.514 631.526C303.942 637.663 296.108 677.455 277.564 752.708L292.794 747.478C322.102 678.459 332.089 642.589 335.45 633.526C338.812 624.463 347.739 587.621 362.233 523H305.538Z" fill="#B28B67"/>
<path fill-rule="evenodd" clip-rule="evenodd" d="M280.45 746.284C279.378 745.813 278.104 746.29 277.705 747.391C276.977 749.398 276 752.409 276 754.106C276 756.811 276.901 762 276.901 762C280.039 762 333.303 762 333.303 762C333.303 762 335.502 754.732 330.765 754.152C326.028 753.573 322.895 753.106 322.895 753.106L296.68 741.419C296.165 741.189 295.563 741.43 295.348 741.951L293.663 746.039C293.663 746.039 289.278 748.085 286.537 748.085C284.868 748.085 282.246 747.074 280.45 746.284Z" fill="#E4E4E4"/>
<path fill-rule="evenodd" clip-rule="evenodd" d="M374.45 746.284C373.378 745.813 372.104 746.29 371.705 747.391C370.977 749.398 370 752.409 370 754.106C370 756.811 370.901 762 370.901 762C374.039 762 427.303 762 427.303 762C427.303 762 429.502 754.732 424.765 754.152C420.028 753.573 416.895 753.106 416.895 753.106L390.68 741.419C390.165 741.189 389.563 741.43 389.348 741.951L387.663 746.039C387.663 746.039 383.278 748.085 380.537 748.085C378.868 748.085 376.246 747.074 374.45 746.284Z" fill="#E4E4E4"/>
<path fill-rule="evenodd" clip-rule="evenodd" d="M314 523L330 585.68H378.87L371.584 523H314Z" fill="#69A1AC"/>
<path fill-rule="evenodd" clip-rule="evenodd" d="M305 523C297.103 546.671 302 585.68 302 585.68H351.87L365.584 523H305Z" fill="#89C5CC"/>
<path fill-rule="evenodd" clip-rule="evenodd" d="M435.372 534.758L407.044 507.122L397.636 523.402L427.093 540.77C434.479 552.405 438.817 557.432 440.107 555.852C441.195 554.519 440.696 553.058 440.237 551.713C439.879 550.665 439.545 549.687 440.004 548.894C441.051 547.082 446.965 548.119 452.535 549.344C458.105 550.568 456.817 547.832 455.633 546.404C450.368 542.155 443.615 538.273 435.372 534.758ZM268.398 574.908C271.328 568.963 281.308 511.02 281.308 511.02L302.205 511.102C302.205 511.102 282.851 573.583 281.308 577.406C279.304 582.372 282.708 589.587 285.016 594.48C285.373 595.237 285.704 595.938 285.985 596.567C282.782 598 281.243 596.268 279.621 594.442C277.79 592.379 275.851 590.197 271.288 592.319C269.525 593.14 267.857 594.109 266.227 595.057C260.597 598.329 255.425 601.336 248.389 596.994C247.274 596.306 246.051 593.715 249.005 591.69C256.362 586.645 266.965 577.815 268.398 574.908Z" fill="#B28B67"/>
<path fill-rule="evenodd" clip-rule="evenodd" d="M340.695 423.332L349.342 421.849C364.23 459.039 390.222 492.831 427.318 523.225L399.286 557.281C362.194 514.005 339.33 469.355 340.695 423.332Z" fill="#191847"/>
<path fill-rule="evenodd" clip-rule="evenodd" d="M303 532H380C380 532 353.241 466.938 353.241 421.461L330.014 418C311.76 447.358 306.605 483.505 303 532Z" fill="#DDE3E9"/>
<path fill-rule="evenodd" clip-rule="evenodd" d="M268 565C276.421 469.996 329.504 418 329.504 418L329.522 418.016C329.525 418.011 329.529 418.005 329.532 418H331.048C333.769 418.094 339.338 418.338 339.338 418.338L344.95 434.377C345.841 463.71 355.351 552.606 355.351 552.606H304.95C305.036 556.682 305.225 560.815 305.531 565H268Z" fill="#2F3676"/>
<path fill-rule="evenodd" clip-rule="evenodd" d="M304.959 553C304.556 535.25 306.131 518.584 308.758 503.502C310.132 521.399 313.003 542.933 319 553H304.959Z" fill="black" fill-opacity="0.1"/>
<path fill-rule="evenodd" clip-rule="evenodd" d="M316.111 522L341 510.429V522H316.111Z" fill="white" fill-opacity="0.2"/>
</g>
<defs>
<clipPath id="clip0">
<rect width="908" height="819" fill="white"/>
</clipPath>
<clipPath id="clip1">
<rect width="837.341" height="272.541" fill="white" transform="translate(35.3297 485.965)"/>
</clipPath>
<clipPath id="clip2">
<rect width="73" height="21.6" fill="white" transform="translate(275 245.2)"/>
</clipPath>
<clipPath id="clip3">
<rect width="73" height="16.8" fill="white" transform="translate(275 303.6)"/>
</clipPath>
<clipPath id="clip4">
<rect width="73" height="16.8" fill="white" transform="translate(275 353.6)"/>
</clipPath>
<clipPath id="clip5">
<rect width="73" height="16.8" fill="white" transform="translate(275 403.6)"/>
</clipPath>
<clipPath id="clip6">
<rect width="73" height="21.6" fill="white" transform="translate(311 271.2)"/>
</clipPath>
<clipPath id="clip7">
<rect width="73" height="16.8" fill="white" transform="translate(341 329.6)"/>
</clipPath>
<clipPath id="clip8">
<rect width="73" height="16.8" fill="white" transform="translate(311 379.6)"/>
</clipPath>
<clipPath id="clip9">
<rect width="73" height="16.8" fill="white" transform="translate(341 429.6)"/>
</clipPath>
<clipPath id="clip10">
<rect width="167" height="18.8" fill="white" transform="translate(379 310.1)"/>
</clipPath>
<clipPath id="clip11">
<rect width="167" height="15.6" fill="white" transform="translate(379 362.7)"/>
</clipPath>
<clipPath id="clip12">
<rect width="167" height="15.6" fill="white" transform="translate(379 409.7)"/>
</clipPath>
<clipPath id="clip13">
<rect width="167" height="15.6" fill="white" transform="translate(379 550.7)"/>
</clipPath>
<clipPath id="clip14">
<rect width="167" height="15.6" fill="white" transform="translate(379 503.7)"/>
</clipPath>
<clipPath id="clip15">
<rect width="167" height="15.6" fill="white" transform="translate(379 456.7)"/>
</clipPath>
</defs>
</svg>
